<?xml version="1.0" standalone="no"?>
<!DOCTYPE svg PUBLIC "-//W3C//DTD SVG 20010904//EN"
 "http://www.w3.org/TR/2001/REC-SVG-20010904/DTD/svg10.dtd">
<svg version="1.0" xmlns="http://www.w3.org/2000/svg"
 width="1024.000000pt" height="1024.000000pt" viewBox="0 0 1024.000000 1024.000000"
 preserveAspectRatio="xMidYMid meet">

<g transform="translate(0.000000,1024.000000) scale(0.100000,-0.100000)"
fill="#000000" stroke="none">
<path d="M0 5120 l0 -5120 5120 0 5120 0 0 5120 0 5120 -5120 0 -5120 0 0
-5120z m5330 2630 c94 0 170 -2 170 -5 0 -3 -34 -80 -76 -172 -42 -93 -82
-181 -89 -198 -116 -256 -255 -579 -255 -591 0 -8 -4 -13 -9 -10 -4 3 -7 161
-6 351 l1 346 -112 -7 -112 -7 -4 84 c-2 46 -2 191 0 321 l4 237 107 113 c59
62 129 137 156 167 l50 53 3 -341 2 -341 170 0z m-1023 -207 c158 -165 283
-301 228 -251 -17 16 -19 16 -37 -4 l-18 -21 -168 166 c-92 92 -172 167 -177
167 -6 -1 -25 -13 -42 -28 l-33 -28 60 -68 c33 -37 60 -69 60 -72 0 -3 -26
-29 -57 -57 -32 -28 -92 -84 -133 -124 l-76 -72 -107 107 -106 107 132 116
c73 64 161 141 197 170 36 30 69 59 73 66 4 7 11 13 15 13 4 0 89 -84 189
-187z m1923 17 c100 -85 193 -164 207 -176 l24 -21 -104 -108 -104 -107 -84
78 c-46 44 -108 102 -138 130 l-54 51 59 62 c32 35 60 66 61 69 1 4 -14 20
-33 36 l-35 29 -174 -172 c-96 -95 -179 -170 -185 -166 -5 3 -7 0 -4 -8 3 -8
-3 -20 -13 -28 -16 -13 -17 -12 -4 4 7 9 11 18 7 18 -3 1 -10 3 -16 4 -5 1
-13 3 -17 4 -3 0 2 11 13 23 12 13 13 18 4 13 -26 -16 36 55 217 243 96 101
179 182 183 180 5 -2 90 -73 190 -158z m-2585 -395 c-36 -33 -65 -63 -65 -67
0 -9 64 -79 211 -232 233 -244 331 -358 319 -370 -8 -8 -15 -6 -26 8 -17 24
-19 13 -2 -13 10 -16 4 -28 -43 -82 -30 -35 -63 -75 -72 -89 -83 -122 -110
-166 -139 -231 -19 -41 -39 -85 -46 -99 -12 -25 -12 -25 -8 -2 3 13 2 21 -2
17 -4 -4 -8 -21 -8 -38 -2 -36 -32 -149 -43 -157 -3 -3 -7 -18 -7 -35 -2 -62
-15 -231 -20 -252 -3 -14 -9 -20 -18 -17 -11 4 -17 -5 -22 -30 l-6 -36 -64 0
-64 0 0 -60 c0 -59 0 -60 -36 -75 -20 -8 -38 -15 -40 -15 -2 0 -4 16 -4 35 0
34 -1 35 -40 35 l-40 0 -2 48 c-1 26 -1 68 0 95 3 51 -6 59 -26 27 -8 -13 -10
-34 -6 -55 6 -33 4 -35 -20 -35 -21 0 -26 -5 -26 -25 0 -22 -4 -25 -39 -25
-28 0 -40 -5 -43 -17 -4 -16 1 -18 39 -14 27 2 43 -1 43 -8 0 -6 -18 -11 -40
-11 -25 0 -40 -5 -40 -12 0 -7 -9 -24 -19 -37 -10 -14 -17 -31 -14 -38 3 -9
-4 -13 -21 -13 -16 0 -26 -6 -26 -15 0 -8 -4 -15 -8 -15 -17 0 -21 13 -11 31
8 16 6 19 -12 19 -12 0 -23 -8 -26 -20 -3 -11 -9 -20 -14 -20 -5 0 -7 -11 -3
-25 4 -15 2 -25 -5 -25 -6 0 -8 6 -5 14 6 16 -29 31 -46 21 -5 -3 -10 -23 -10
-44 0 -30 4 -38 16 -37 11 0 18 -7 19 -21 2 -25 -10 -31 -18 -9 -3 7 -14 15
-24 18 -13 4 -18 -1 -19 -19 -1 -14 2 -20 9 -16 7 4 8 -5 4 -26 -4 -18 -3 -30
2 -26 5 3 11 2 14 -2 2 -5 2 -2 1 5 -2 6 1 12 6 12 5 0 11 -8 13 -17 4 -14 5
-12 6 5 1 21 31 33 31 12 0 -5 11 -9 25 -8 14 1 25 6 25 10 0 4 5 8 11 8 5 0
8 -4 5 -9 -3 -4 19 -8 49 -8 30 0 55 4 55 8 0 5 8 6 18 2 14 -5 13 -3 -3 10
-20 16 -20 16 2 17 12 0 24 -8 27 -17 3 -10 3 2 1 27 -2 25 -2 37 1 28 6 -20
29 -24 40 -7 3 6 17 9 30 6 14 -2 27 -1 29 3 3 4 37 10 77 14 40 4 100 14 133
23 64 17 86 21 125 22 19 1 22 3 10 11 -8 5 -12 11 -9 14 12 12 79 -49 90 -83
7 -19 18 -42 26 -49 7 -7 13 -21 13 -30 0 -22 70 -159 117 -229 20 -30 69 -90
109 -133 76 -80 87 -97 57 -86 -17 6 -17 5 0 -8 15 -12 17 -34 15 -237 -1
-173 -3 -201 -8 -124 -3 55 -7 93 -8 85 -2 -13 -3 -13 -12 0 -8 13 -10 12 -10
-2 0 -23 -9 -23 -26 0 -13 16 -13 16 -14 -1 0 -10 -4 -16 -8 -13 -4 2 -14 1
-21 -3 -8 -6 -20 -2 -32 10 -24 24 -24 29 1 29 14 0 20 7 20 21 0 20 -3 21
-79 14 -66 -6 -79 -4 -84 9 -5 13 -22 16 -84 16 -54 0 -73 -3 -63 -10 12 -8 9
-10 -12 -10 -28 0 -62 36 -56 60 2 7 -3 15 -9 17 -7 3 -13 0 -13 -6 0 -6 -9
-11 -20 -11 -11 0 -20 -4 -20 -10 0 -5 -9 -10 -20 -10 -11 0 -20 -7 -20 -15 0
-23 -37 -18 -43 6 -4 15 -11 20 -21 16 -9 -4 -16 -1 -16 6 0 7 -14 18 -31 24
-17 7 -33 21 -36 32 -3 12 -10 18 -20 14 -10 -4 -11 -9 -4 -16 17 -17 13 -26
-9 -20 -11 3 -20 0 -20 -6 0 -6 -5 -11 -11 -11 -6 0 -9 7 -5 15 3 9 0 15 -8
15 -16 0 -26 21 -22 47 2 10 1 12 -1 6 -6 -19 -33 -16 -33 3 0 11 -6 15 -20
11 -11 -3 -20 -1 -20 5 0 5 -4 7 -9 3 -10 -6 -8 -51 2 -62 4 -3 7 -13 7 -22 0
-11 -3 -11 -16 5 -17 21 11 -32 60 -111 48 -79 158 -223 237 -310 l73 -80
-102 -3 c-100 -3 -102 -2 -129 25 -253 260 -463 664 -537 1035 -41 201 -49
312 -43 553 7 311 45 513 143 763 142 365 357 660 677 926 l68 57 40 -43 39
-43 -65 -60z m881 -112 c137 -142 255 -265 262 -274 11 -14 -6 -33 -124 -140
-74 -68 -141 -125 -148 -127 -6 -1 -66 55 -131 125 -66 70 -175 185 -243 255
-171 175 -165 163 -111 207 24 20 87 75 139 123 52 48 98 88 101 88 3 0 118
-116 255 -257z m1508 128 c75 -68 136 -128 136 -133 0 -4 -115 -130 -256 -278
l-255 -269 -32 28 c-40 36 -167 145 -224 193 l-43 37 262 275 c144 152 265
275 269 274 4 -2 68 -59 143 -127z m645 -5 c258 -228 419 -439 552 -723 141
-302 203 -586 203 -933 0 -216 -13 -359 -50 -526 -73 -334 -222 -643 -442
-915 -108 -133 -103 -130 -221 -127 l-102 3 101 115 c97 111 216 272 222 301
2 8 8 18 15 24 26 22 103 188 98 209 -5 15 -4 17 3 7 8 -11 12 -9 18 10 4 13
7 30 5 38 -1 8 2 10 10 5 9 -5 10 -2 6 9 -3 10 -2 17 4 17 6 0 8 4 5 9 -4 5 0
12 6 14 10 4 10 6 0 6 -7 1 -26 -20 -43 -46 -29 -44 -31 -43 -12 4 4 11 3 14
-5 9 -8 -5 -10 -2 -5 9 4 12 8 13 13 5 5 -8 9 -7 13 3 4 10 0 14 -11 12 -9 -2
-22 -4 -29 -4 -14 -1 -53 -40 -53 -53 0 -5 10 -13 23 -18 12 -5 16 -9 8 -9 -8
-1 -23 -8 -33 -18 -10 -9 -18 -12 -18 -7 0 5 -22 9 -50 9 -27 0 -50 -3 -50 -6
0 -4 -9 -9 -20 -12 -14 -4 -18 -11 -14 -24 3 -10 2 -14 -3 -8 -9 12 -28 13
-39 3 -4 -5 -21 -8 -39 -8 -22 0 -40 -10 -65 -35 -28 -29 -41 -35 -77 -35 -39
0 -43 -2 -43 -24 0 -23 -4 -25 -52 -28 -46 -3 -55 -7 -65 -29 -7 -15 -20 -32
-28 -39 -13 -10 -15 -9 -15 10 0 17 -3 20 -12 13 -7 -6 -25 -13 -40 -17 -21
-5 -28 -3 -28 8 0 8 -5 18 -12 22 -6 4 -8 3 -5 -3 4 -6 -9 -21 -28 -34 -19
-13 -35 -27 -35 -31 0 -5 -19 -8 -42 -9 -24 0 -36 -3 -28 -6 8 -4 21 -12 28
-20 19 -19 -4 -26 -73 -21 -66 4 -63 7 -68 -122 -2 -47 -4 35 -5 181 l-2 266
23 12 c29 16 153 173 194 248 18 32 47 95 65 141 17 46 34 78 38 72 8 -14 20
11 20 41 0 11 7 30 14 42 20 30 33 92 46 222 38 380 -91 759 -351 1030 l-77
80 81 86 c45 46 150 156 232 244 83 87 174 184 203 214 l53 56 -28 25 c-15 14
-39 34 -53 45 -14 11 -33 30 -44 42 -18 22 -18 23 13 49 17 14 31 33 31 41 0
23 34 -2 169 -121z m-1356 -1303 c133 -120 280 -251 327 -292 47 -41 182 -161
301 -268 l216 -193 -34 -39 -35 -38 -27 26 c-14 14 -83 75 -151 136 -69 60
-181 159 -250 220 -69 61 -206 182 -305 269 -99 88 -204 182 -232 210 l-53 50
-27 -25 c-16 -14 -75 -68 -133 -120 -58 -51 -107 -96 -110 -99 -3 -3 -72 -66
-155 -140 -82 -74 -224 -202 -315 -285 -91 -82 -189 -171 -218 -196 l-51 -46
-36 37 -36 37 187 169 c103 93 217 196 253 228 36 32 93 84 127 115 33 31 121
110 195 177 73 67 175 158 224 202 50 45 91 81 93 82 1 0 111 -98 245 -217z
m-179 -225 c34 -29 155 -136 270 -238 115 -102 268 -237 340 -301 l131 -115
-3 -520 -4 -519 -237 -3 -238 -2 -7 76 c-4 42 -4 153 0 245 l7 169 -301 0
c-165 0 -307 3 -316 6 -14 6 -16 -20 -16 -245 l0 -251 -242 2 -243 3 0 519 0
520 235 209 c129 115 306 274 393 353 88 79 161 144 165 144 3 0 33 -24 66
-52z m-1446 -300 c0 -65 -6 -90 -20 -82 -7 4 -6 9 3 15 10 6 10 15 2 43 -6 20
-7 36 -2 36 5 0 9 9 9 20 0 11 2 20 4 20 2 0 4 -24 4 -52z m-180 -80 c-3 -7
-13 -14 -24 -15 -18 -3 -18 -2 1 6 17 7 13 10 -20 13 l-40 5 43 1 c31 2 42 -2
40 -10z m82 -38 c0 -5 -18 -10 -40 -10 -22 0 -40 5 -40 10 0 6 18 10 40 10 22
0 40 -4 40 -10z m-447 -21 c3 -13 1 -19 -6 -16 -15 5 -22 37 -9 37 5 0 12 -9
15 -21z m-86 -41 c-3 -7 -5 -2 -5 12 0 14 2 19 5 13 2 -7 2 -19 0 -25z m30
-15 c-3 -10 -5 -2 -5 17 0 19 2 27 5 18 2 -10 2 -26 0 -35z m32 2 c0 -5 -4 -3
-9 5 -5 8 -9 22 -9 30 0 16 17 -16 18 -35z m3791 -638 c0 -4 -9 -2 -20 5 -11
7 -20 22 -20 33 0 18 2 18 20 -5 11 -14 20 -28 20 -33z m-116 37 c23 -9 20
-26 -4 -19 -11 4 -20 2 -20 -4 0 -6 -13 -11 -30 -11 -16 0 -30 5 -30 10 0 6
14 10 30 10 17 0 30 5 30 10 0 12 3 12 24 4z m196 -33 c-1 -11 -5 -8 -15 9 -8
14 -14 19 -15 11 0 -8 -3 -12 -6 -8 -3 3 -3 11 1 17 9 15 35 -7 35 -29z
m-3770 -31 c0 -5 -5 -10 -11 -10 -5 0 -7 5 -4 10 3 6 8 10 11 10 2 0 4 -4 4
-10z m195 -80 c3 -5 -1 -10 -9 -10 -9 0 -16 5 -16 10 0 6 4 10 9 10 6 0 13 -4
16 -10z m332 -102 c-3 -8 -6 -5 -6 6 -1 11 2 17 5 13 3 -3 4 -12 1 -19z m-240
6 c-3 -3 -12 -4 -19 -1 -8 3 -5 6 6 6 11 1 17 -2 13 -5z m213 -4 c0 -5 -4 -10
-10 -10 -5 0 -10 5 -10 10 0 6 5 10 10 10 6 0 10 -4 10 -10z m370 -79 c0 -6
-4 -13 -10 -16 -5 -3 -10 1 -10 9 0 9 5 16 10 16 6 0 10 -4 10 -9z m1977 -63
c-3 -7 -5 -2 -5 12 0 14 2 19 5 13 2 -7 2 -19 0 -25z m1578 -420 c49 -12 77
-27 132 -67 l43 -31 -57 -69 -56 -70 -31 24 c-33 25 -114 55 -147 55 -40 0
-88 -28 -95 -55 -10 -42 25 -70 135 -106 130 -43 180 -69 228 -121 52 -57 67
-103 61 -188 -8 -108 -65 -193 -163 -242 -118 -59 -305 -41 -424 41 -82 56
-82 57 -21 137 29 38 56 73 60 77 4 5 28 -7 52 -25 55 -42 123 -62 183 -56 65
8 95 31 95 73 0 45 -17 55 -148 94 -171 51 -241 101 -273 198 -16 48 -4 133
26 192 66 131 220 185 400 139z m-4314 -32 c69 -21 102 -41 151 -89 48 -49
100 -138 117 -203 6 -23 12 -82 12 -132 1 -201 -109 -377 -270 -428 -41 -13
-74 -15 -141 -11 -132 8 -213 55 -281 160 -121 187 -109 446 27 596 91 102
254 147 385 107z m-1108 -6 c14 -16 336 -430 352 -452 11 -15 22 -28 25 -28 3
0 4 108 2 240 l-3 240 101 0 102 0 -6 -362 c-3 -200 -5 -393 -6 -430 l0 -68
-63 0 -63 0 -135 178 c-73 97 -161 214 -194 259 -33 45 -62 82 -65 83 -3 0 -4
-66 -2 -147 2 -82 1 -199 -3 -260 l-7 -113 -89 0 -89 0 0 433 0 432 69 0 c38
0 71 -2 74 -5z m1578 -221 c110 -284 120 -308 126 -289 15 47 178 470 190 493
l14 28 94 -3 c79 -3 94 -5 90 -18 -3 -8 -28 -69 -55 -135 -27 -66 -87 -217
-134 -335 -47 -118 -101 -251 -119 -295 l-34 -80 -54 -3 -54 -3 -99 253 c-87
223 -145 368 -221 558 l-22 55 96 -1 95 -1 87 -224z m887 -44 c62 -148 119
-282 125 -297 6 -16 15 -28 19 -28 4 0 8 134 8 298 l0 297 95 -3 95 -3 0 -172
0 -172 125 0 125 0 0 179 0 179 46 -7 c26 -3 66 -6 90 -6 39 0 43 -2 49 -31 4
-17 4 -210 0 -430 l-8 -399 -88 0 -89 0 0 170 0 170 -125 0 -125 0 0 -72 c0
-40 -3 -117 -7 -171 l-6 -98 -141 3 -140 3 -27 70 -27 70 -140 3 -140 3 -27
-76 -28 -75 -98 0 c-55 0 -99 4 -99 9 0 5 71 177 158 383 88 205 167 394 177
420 9 26 25 49 34 52 49 13 51 10 169 -269z m1420 83 c40 -101 116 -286 167
-413 52 -126 97 -238 100 -247 7 -16 -2 -18 -93 -18 -67 0 -104 4 -109 12 -4
7 -24 55 -43 107 -19 52 -38 94 -42 93 -5 -1 -74 -2 -155 -2 l-148 0 -39 -105
-39 -105 -100 0 c-90 0 -99 2 -94 18 3 9 68 181 145 382 76 201 146 388 156
415 l16 51 103 -3 102 -2 73 -183z m502 -71 c0 -139 4 -268 10 -286 28 -99
152 -139 248 -81 58 35 62 59 62 355 l0 265 95 0 95 0 0 -278 c0 -349 -8 -387
-99 -485 -75 -81 -206 -117 -333 -93 -112 22 -186 77 -240 178 -22 42 -23 51
-26 363 l-3 320 95 -3 96 -3 0 -252z"/>
<path d="M3920 6671 c0 -10 39 -46 43 -40 2 2 -7 14 -20 26 -13 12 -23 19 -23
14z"/>
<path d="M3600 6309 c0 -5 5 -7 10 -4 6 3 10 8 10 11 0 2 -4 4 -10 4 -5 0 -10
-5 -10 -11z"/>
<path d="M3783 6065 c-3 -9 -3 -18 -1 -21 3 -3 8 4 11 16 6 23 -1 27 -10 5z"/>
<path d="M3656 5553 c-12 -12 -6 -33 9 -33 8 0 15 6 15 14 0 17 -14 28 -24 19z"/>
<path d="M3156 5321 c-4 -5 -2 -12 3 -15 5 -4 12 -2 15 3 4 5 2 12 -3 15 -5 4
-12 2 -15 -3z"/>
<path d="M3127 5270 c3 -11 9 -17 15 -14 5 3 4 12 -3 20 -16 19 -18 18 -12 -6z"/>
<path d="M2943 5207 c0 -42 4 -77 8 -77 11 0 11 108 0 135 -5 12 -8 -11 -8
-58z"/>
<path d="M3670 5150 c-18 -12 -2 -12 25 0 13 6 15 9 5 9 -8 0 -22 -4 -30 -9z"/>
<path d="M3608 5133 c7 -3 16 -2 19 1 4 3 -2 6 -13 5 -11 0 -14 -3 -6 -6z"/>
<path d="M3145 4540 c-8 -24 2 -43 17 -34 8 5 9 1 5 -10 -4 -11 -3 -15 4 -11
6 4 8 14 5 22 -3 8 -1 23 4 34 6 10 7 19 2 19 -4 0 -13 -12 -20 -27 l-12 -28
5 28 c6 31 -1 36 -10 7z"/>
<path d="M3400 4465 c0 -8 5 -15 10 -15 6 0 10 7 10 15 0 8 -4 15 -10 15 -5 0
-10 -7 -10 -15z"/>
<path d="M3484 4419 c-7 -12 15 -31 28 -23 4 3 8 12 8 20 0 17 -26 19 -36 3z"/>
<path d="M3666 4411 c-3 -5 1 -12 10 -15 22 -8 25 -4 9 11 -8 7 -16 9 -19 4z"/>
<path d="M3858 4413 c12 -2 32 -2 45 0 12 2 2 4 -23 4 -25 0 -35 -2 -22 -4z"/>
<path d="M4036 4335 c-3 -9 0 -15 9 -15 8 0 15 7 15 15 0 8 -4 15 -9 15 -5 0
-11 -7 -15 -15z"/>
<path d="M4494 6591 c21 -23 26 -26 26 -11 0 5 -10 15 -22 21 -23 12 -23 12
-4 -10z"/>
<path d="M7130 4828 c0 -9 5 -20 10 -23 13 -8 13 5 0 25 -8 13 -10 13 -10 -2z"/>
<path d="M7120 4780 c0 -5 5 -10 10 -10 6 0 10 5 10 10 0 6 -4 10 -10 10 -5 0
-10 -4 -10 -10z"/>
<path d="M6945 4636 c17 -7 32 -11 35 -9 8 7 -24 23 -45 22 -15 0 -13 -3 10
-13z"/>
<path d="M6072 4345 c0 -16 2 -22 5 -12 2 9 2 23 0 30 -3 6 -5 -1 -5 -18z"/>
<path d="M4763 5143 c-2 -6 -3 -55 -1 -108 l3 -97 138 -2 137 -1 0 107 0 107
-136 3 c-97 2 -138 0 -141 -9z"/>
<path d="M5122 5043 l3 -108 135 1 135 2 3 106 3 106 -141 0 -141 0 3 -107z"/>
<path d="M4770 4740 l0 -110 135 0 135 0 0 110 0 110 -135 0 -135 0 0 -110z"/>
<path d="M5120 4740 l0 -110 140 0 140 0 0 110 0 110 -140 0 -140 0 0 -110z"/>
<path d="M3155 3526 c-136 -59 -153 -335 -27 -424 95 -68 215 -34 268 75 60
122 23 291 -76 341 -50 25 -118 28 -165 8z"/>
<path d="M4518 3287 c-16 -45 -28 -88 -28 -95 0 -8 20 -12 65 -12 36 0 65 4
65 9 0 18 -62 181 -68 181 -4 0 -19 -37 -34 -83z"/>
<path d="M5902 3391 c-23 -70 -42 -133 -42 -140 0 -7 30 -11 91 -11 89 0 90 0
84 23 -12 39 -85 251 -89 254 -1 2 -22 -55 -44 -126z"/>
</g>
</svg>
